<svg width="219" height="40" viewBox="0 0 219 40" fill="none" xmlns="http://www.w3.org/2000/svg">
<path d="M3.91354 9.44262V31.5833H0V9.44262H3.91354Z" fill="white"/>
<path d="M15.2893 31.9076C13.6244 31.9076 12.1866 31.5617 10.9757 30.8698C9.77213 30.1707 8.846 29.1833 8.19735 27.9076C7.54869 26.6247 7.22437 25.1148 7.22437 23.3778C7.22437 21.6697 7.54869 20.1706 8.19735 18.8805C8.85321 17.5832 9.76853 16.5742 10.9433 15.8535C12.1181 15.1255 13.4983 14.7616 15.0839 14.7616C16.1073 14.7616 17.0731 14.9273 17.9812 15.2589C18.8965 15.5832 19.7037 16.0877 20.4028 16.7724C21.1091 17.4571 21.6641 18.3292 22.0677 19.3886C22.4713 20.4409 22.6731 21.6949 22.6731 23.1508V24.3508H11.1039V21.713H18.9217C18.9145 20.9634 18.7524 20.2967 18.4352 19.713C18.1181 19.122 17.6749 18.6571 17.1055 18.3183C16.5433 17.9796 15.8875 17.8102 15.1379 17.8102C14.3379 17.8102 13.6352 18.0048 13.0298 18.394C12.4244 18.776 11.9523 19.2805 11.6136 19.9075C11.2821 20.5274 11.1127 21.2085 11.1055 21.9508V24.2535C11.1055 25.2193 11.2821 26.0481 11.6352 26.74C11.9884 27.4247 12.4821 27.9508 13.1163 28.3184C13.7505 28.6788 14.4929 28.859 15.3433 28.859C15.9127 28.859 16.428 28.7797 16.8893 28.6211C17.3506 28.4553 17.7506 28.2139 18.0893 27.8968C18.428 27.5797 18.6839 27.1869 18.8569 26.7184L22.5109 27.1292C22.2803 28.095 21.8407 28.9382 21.192 29.659C20.5506 30.3725 19.7289 30.9274 18.7271 31.3238C17.7253 31.713 16.5794 31.9076 15.2893 31.9076Z" fill="white"/>
<path d="M25.9839 31.5833V14.9778H29.7245V17.7994H29.9191C30.265 16.8481 30.838 16.1057 31.638 15.5724C32.438 15.0318 33.393 14.7616 34.5029 14.7616C35.6272 14.7616 36.575 15.0354 37.3462 15.5832C38.1246 16.1237 38.6723 16.8625 38.9894 17.7994H39.1624C39.53 16.8769 40.1498 16.1418 41.0219 15.594C41.9012 15.039 42.9426 14.7616 44.1462 14.7616C45.6742 14.7616 46.921 15.2445 47.8868 16.2102C48.8525 17.176 49.3354 18.585 49.3354 20.4373V31.5833H45.4111V21.0427C45.4111 20.0121 45.1372 19.2589 44.5895 18.7832C44.0417 18.3003 43.3714 18.0589 42.5786 18.0589C41.6345 18.0589 40.8957 18.3544 40.3624 18.9454C39.8363 19.5292 39.5732 20.2895 39.5732 21.2265V31.5833H35.7354V20.8805C35.7354 20.0229 35.4759 19.3382 34.957 18.8265C34.4453 18.3147 33.775 18.0589 32.9461 18.0589C32.384 18.0589 31.8723 18.203 31.411 18.4913C30.9497 18.7724 30.5822 19.1724 30.3083 19.6913C30.0344 20.203 29.8975 20.8012 29.8975 21.4859V31.5833H25.9839Z" fill="white"/>
<path d="M60.549 31.9076C58.9274 31.9076 57.522 31.5509 56.3328 30.8373C55.1436 30.1238 54.2211 29.1256 53.5652 27.8427C52.9165 26.5598 52.5922 25.0607 52.5922 23.3454C52.5922 21.6301 52.9165 20.1274 53.5652 18.8373C54.2211 17.5472 55.1436 16.5454 56.3328 15.8318C57.522 15.1183 58.9274 14.7616 60.549 14.7616C62.1706 14.7616 63.5761 15.1183 64.7653 15.8318C65.9545 16.5454 66.8734 17.5472 67.522 18.8373C68.1779 20.1274 68.5058 21.6301 68.5058 23.3454C68.5058 25.0607 68.1779 26.5598 67.522 27.8427C66.8734 29.1256 65.9545 30.1238 64.7653 30.8373C63.5761 31.5509 62.1706 31.9076 60.549 31.9076ZM60.5706 28.7725C61.4499 28.7725 62.1851 28.531 62.7761 28.0481C63.367 27.558 63.8067 26.9022 64.095 26.0806C64.3905 25.2589 64.5382 24.3436 64.5382 23.3346C64.5382 22.3184 64.3905 21.3994 64.095 20.5778C63.8067 19.749 63.367 19.0895 62.7761 18.5994C62.1851 18.1093 61.4499 17.8643 60.5706 17.8643C59.6697 17.8643 58.9202 18.1093 58.322 18.5994C57.731 19.0895 57.2877 19.749 56.9922 20.5778C56.7039 21.3994 56.5598 22.3184 56.5598 23.3346C56.5598 24.3436 56.7039 25.2589 56.9922 26.0806C57.2877 26.9022 57.731 27.558 58.322 28.0481C58.9202 28.531 59.6697 28.7725 60.5706 28.7725Z" fill="white"/>
<path d="M75.741 21.8535V31.5833H71.8275V14.9778H75.568V17.7994H75.7626C76.1446 16.8697 76.7536 16.1309 77.5897 15.5832C78.4329 15.0354 79.4744 14.7616 80.714 14.7616C81.86 14.7616 82.8582 15.0066 83.7086 15.4967C84.5663 15.9868 85.2294 16.6967 85.6978 17.6265C86.1735 18.5562 86.4077 19.6841 86.4005 21.0103V31.5833H82.487V21.6157C82.487 20.5057 82.1987 19.6373 81.6221 19.0102C81.0527 18.3832 80.2635 18.0697 79.2545 18.0697C78.5698 18.0697 77.9608 18.221 77.4275 18.5238C76.9014 18.8193 76.487 19.2481 76.1842 19.8102C75.8887 20.3724 75.741 21.0535 75.741 21.8535Z" fill="white"/>
<path d="M127.69 24.5995V14.9778H131.604V31.5833H127.809V28.6319H127.636C127.261 29.5617 126.645 30.322 125.787 30.913C124.937 31.504 123.888 31.7995 122.641 31.7995C121.553 31.7995 120.591 31.5581 119.755 31.0752C118.926 30.5851 118.277 29.8752 117.809 28.9454C117.34 28.0085 117.106 26.877 117.106 25.5508V14.9778H121.02V24.9454C121.02 25.9977 121.308 26.8337 121.885 27.4535C122.461 28.0734 123.218 28.3833 124.155 28.3833C124.731 28.3833 125.29 28.2427 125.83 27.9616C126.371 27.6806 126.814 27.2625 127.16 26.7076C127.513 26.1454 127.69 25.4427 127.69 24.5995Z" fill="white"/>
<path d="M182.614 9.44262V31.5833H178.701V9.44262H182.614Z" fill="white"/>
<path d="M193.99 31.9076C192.325 31.9076 190.887 31.5617 189.676 30.8698C188.473 30.1707 187.547 29.1833 186.898 27.9076C186.249 26.6247 185.925 25.1148 185.925 23.3778C185.925 21.6697 186.249 20.1706 186.898 18.8805C187.554 17.5832 188.469 16.5742 189.644 15.8535C190.819 15.1255 192.199 14.7616 193.785 14.7616C194.808 14.7616 195.774 14.9273 196.682 15.2589C197.597 15.5832 198.404 16.0877 199.104 16.7724C199.81 17.4571 200.365 18.3292 200.768 19.3886C201.172 20.4409 201.374 21.6949 201.374 23.1508V24.3508H187.763V21.713H197.622C197.615 20.9634 197.453 20.2967 197.136 19.713C196.819 19.122 196.376 18.6571 195.806 18.3183C195.244 17.9796 194.588 17.8102 193.839 17.8102C193.039 17.8102 192.336 18.0048 191.731 18.394C191.125 18.776 190.653 19.2805 190.314 19.9075C189.983 20.5274 189.813 21.2085 189.806 21.9508V24.2535C189.806 25.2193 189.983 26.0481 190.336 26.74C190.689 27.4247 191.183 27.9508 191.817 28.3184C192.451 28.6788 193.194 28.859 194.044 28.859C194.613 28.859 195.129 28.7797 195.59 28.6211C196.051 28.4553 196.451 28.2139 196.79 27.8968C197.129 27.5797 197.385 27.1869 197.558 26.7184L201.212 27.1292C200.981 28.095 200.541 28.9382 199.893 29.659C199.251 30.3725 198.43 30.9274 197.428 31.3238C196.426 31.713 195.28 31.9076 193.99 31.9076Z" fill="white"/>
<path d="M217.809 19.367L214.242 19.7562C214.141 19.3958 213.964 19.0571 213.712 18.74C213.467 18.4229 213.135 18.167 212.717 17.9724C212.299 17.7778 211.787 17.6805 211.182 17.6805C210.368 17.6805 209.683 17.8571 209.128 18.2102C208.58 18.5634 208.31 19.0211 208.317 19.5832C208.31 20.0661 208.487 20.4589 208.847 20.7616C209.214 21.0643 209.82 21.313 210.663 21.5076L213.496 22.113C215.067 22.4517 216.234 22.9886 216.998 23.7238C217.769 24.4589 218.159 25.4211 218.166 26.6103C218.159 27.6553 217.852 28.5779 217.247 29.3779C216.649 30.1707 215.816 30.7905 214.75 31.2373C213.683 31.6842 212.458 31.9076 211.074 31.9076C209.041 31.9076 207.405 31.4824 206.166 30.6319C204.926 29.7743 204.187 28.5815 203.95 27.0535L207.766 26.686C207.939 27.4355 208.306 28.0013 208.868 28.3833C209.431 28.7653 210.162 28.9562 211.063 28.9562C211.993 28.9562 212.739 28.7653 213.301 28.3833C213.87 28.0013 214.155 27.5292 214.155 26.967C214.155 26.4914 213.971 26.0986 213.604 25.7887C213.243 25.4788 212.681 25.2409 211.917 25.0751L209.085 24.4805C207.492 24.149 206.314 23.5905 205.55 22.8049C204.786 22.0121 204.407 21.0103 204.414 19.7994C204.407 18.776 204.685 17.8895 205.247 17.14C205.816 16.3832 206.605 15.7994 207.614 15.3886C208.631 14.9706 209.802 14.7616 211.128 14.7616C213.074 14.7616 214.605 15.176 215.723 16.0048C216.847 16.8337 217.542 17.9544 217.809 19.367Z" fill="white"/>
<g filter="url(#filter0_d_101_1490)">
<path fill-rule="evenodd" clip-rule="evenodd" d="M136.481 0C135.901 0 135.432 0.469735 135.432 1.04918V17.3558C136.263 15.5058 137.542 13.9656 139.104 12.9256V1.04918C139.104 0.469734 138.634 0 138.055 0H136.481ZM138.879 31.5994C137.419 30.5641 136.222 29.0841 135.432 27.3234V30.9508C135.432 31.5303 135.901 32 136.481 32H138.055C138.389 32 138.687 31.8433 138.879 31.5994Z" fill="white"/>
<path d="M155.366 22.0328C155.366 27.5375 150.904 32 145.399 32C139.894 32 135.432 27.5375 135.432 22.0328C135.432 16.528 139.894 12.0656 145.399 12.0656C150.904 12.0656 155.366 16.528 155.366 22.0328ZM138.92 22.0328C138.92 25.6109 141.821 28.5115 145.399 28.5115C148.977 28.5115 151.878 25.6109 151.878 22.0328C151.878 18.4547 148.977 15.5541 145.399 15.5541C141.821 15.5541 138.92 18.4547 138.92 22.0328Z" fill="#35A7FF"/>
<path d="M175.3 23.6066C175.3 28.2421 171.543 32 166.907 32C162.271 32 158.514 28.2421 158.514 23.6066C158.514 18.971 162.271 15.2131 166.907 15.2131C171.543 15.2131 175.3 18.971 175.3 23.6066ZM161.871 23.6066C161.871 26.3879 164.126 28.6426 166.907 28.6426C169.688 28.6426 171.943 26.3879 171.943 23.6066C171.943 20.8252 169.688 18.5705 166.907 18.5705C164.126 18.5705 161.871 20.8252 161.871 23.6066Z" fill="#35A7FF"/>
<path fill-rule="evenodd" clip-rule="evenodd" d="M159.563 4.19672C158.983 4.19672 158.514 4.66646 158.514 5.2459V19.2764C159.345 17.6689 160.624 16.3308 162.186 15.4272V5.2459C162.186 4.66646 161.716 4.19672 161.137 4.19672H159.563ZM161.933 31.6342C160.485 30.7356 159.299 29.4565 158.514 27.9367V30.9508C158.514 31.5303 158.983 32 159.563 32H161.137C161.455 32 161.74 31.8582 161.933 31.6342Z" fill="white"/>
</g>
<path d="M114.973 23.6066C114.973 28.2421 111.215 32 106.579 32C101.944 32 98.186 28.2421 98.186 23.6066C98.186 18.971 101.944 15.2131 106.579 15.2131C111.215 15.2131 114.973 18.971 114.973 23.6066ZM101.543 23.6066C101.543 26.3879 103.798 28.6426 106.579 28.6426C109.361 28.6426 111.616 26.3879 111.616 23.6066C111.616 20.8252 109.361 18.5705 106.579 18.5705C103.798 18.5705 101.543 20.8252 101.543 23.6066Z" fill="#35A7FF"/>
<path fill-rule="evenodd" clip-rule="evenodd" d="M99.2352 4.19672C98.6558 4.19672 98.186 4.66646 98.186 5.2459V19.2764C99.017 17.6689 100.296 16.3308 101.858 15.4272V5.2459C101.858 4.66646 101.388 4.19672 100.809 4.19672H99.2352ZM101.605 31.6342C100.158 30.7356 98.9717 29.4565 98.186 27.9367V30.9508C98.186 31.5303 98.6558 32 99.2352 32H100.809C101.127 32 101.413 31.8582 101.605 31.6342Z" fill="white"/>
<defs>
<filter id="filter0_d_101_1490" x="131.432" y="0" width="47.8687" height="40" filterUnits="userSpaceOnUse" color-interpolation-filters="sRGB">
<feFlood flood-opacity="0" result="BackgroundImageFix"/>
<feColorMatrix in="SourceAlpha" type="matrix" values="0 0 0 0 0 0 0 0 0 0 0 0 0 0 0 0 0 0 127 0" result="hardAlpha"/>
<feOffset dy="4"/>
<feGaussianBlur stdDeviation="2"/>
<feComposite in2="hardAlpha" operator="out"/>
<feColorMatrix type="matrix" values="0 0 0 0 0 0 0 0 0 0 0 0 0 0 0 0 0 0 0.25 0"/>
<feBlend mode="normal" in2="BackgroundImageFix" result="effect1_dropShadow_101_1490"/>
<feBlend mode="normal" in="SourceGraphic" in2="effect1_dropShadow_101_1490" result="shape"/>
</filter>
</defs>
</svg>
